<svg width="50" height="50" viewBox="0 0 50 50" fill="none" xmlns="http://www.w3.org/2000/svg">
<g id="Solid / at" filter="url(#filter0_d_5_3)">
<rect width="50" height="50" fill="black"/>
<path id="Vector" d="M25 4.16666C13.5417 4.16666 4.16666 13.5417 4.16666 25C4.16666 36.4583 13.5417 45.8333 25 45.8333C28.75 45.8333 32.2917 44.7917 35.4167 43.125C36.4583 42.5 36.6667 41.25 36.25 40.2083C35.625 39.1667 34.375 38.9583 33.3333 39.375C25.4167 43.9583 15.2083 41.25 10.625 33.3333C6.04166 25.4167 8.75 15.2083 16.6667 10.625C24.5833 6.04166 34.7917 8.74999 39.375 16.6667C40.8333 19.1667 41.6667 22.0833 41.6667 25V26.6667C41.6667 28.75 40 30.4167 37.9167 30.4167C35.8333 30.4167 34.1667 28.75 34.1667 26.6667V17.7083C34.1667 16.4583 33.3333 15.625 32.0833 15.625C31.0417 15.625 30.2083 16.25 30 17.2917C25.8333 14.375 19.7917 15.4167 16.875 19.5833C13.9583 23.75 15 29.7917 19.1667 32.7083C23.125 35.4167 28.3333 34.7917 31.4583 31.25C34.1667 34.5833 38.9583 35.2083 42.2917 32.7083C44.1667 31.25 45.4167 28.9583 45.4167 26.4583V25C45.8333 13.5417 36.4583 4.16666 25 4.16666ZM25 30.2083C22.0833 30.2083 19.7917 27.9167 19.7917 25C19.7917 22.0833 22.0833 19.7917 25 19.7917C27.9167 19.7917 30.2083 22.0833 30.2083 25C30.2083 27.9167 27.9167 30.2083 25 30.2083Z" fill="white"/>
</g>
<defs>
<filter id="filter0_d_5_3" x="-4" y="0" width="58" height="58" filterUnits="userSpaceOnUse" color-interpolation-filters="sRGB">
<feFlood flood-opacity="0" result="BackgroundImageFix"/>
<feColorMatrix in="SourceAlpha" type="matrix" values="0 0 0 0 0 0 0 0 0 0 0 0 0 0 0 0 0 0 127 0" result="hardAlpha"/>
<feOffset dy="4"/>
<feGaussianBlur stdDeviation="2"/>
<feComposite in2="hardAlpha" operator="out"/>
<feColorMatrix type="matrix" values="0 0 0 0 0 0 0 0 0 0 0 0 0 0 0 0 0 0 0.25 0"/>
<feBlend mode="normal" in2="BackgroundImageFix" result="effect1_dropShadow_5_3"/>
<feBlend mode="normal" in="SourceGraphic" in2="effect1_dropShadow_5_3" result="shape"/>
</filter>
</defs>
</svg>
