<svg width="136" height="50" viewBox="0 0 136 50" fill="none" xmlns="http://www.w3.org/2000/svg">
<g filter="url(#filter0_i_0_1)">
<path d="M25 4.16666C13.5417 4.16666 4.16667 13.5417 4.16667 25C4.16667 36.4583 13.5417 45.8333 25 45.8333C28.75 45.8333 32.2917 44.7917 35.4167 43.125C36.4583 42.5 36.6667 41.25 36.25 40.2083C35.625 39.1667 34.375 38.9583 33.3333 39.375C25.4167 43.9583 15.2083 41.25 10.625 33.3333C6.04167 25.4167 8.75001 15.2083 16.6667 10.625C24.5833 6.04166 34.7917 8.75 39.375 16.6667C40.8333 19.1667 41.6667 22.0833 41.6667 25V26.6667C41.6667 28.75 40 30.4167 37.9167 30.4167C35.8333 30.4167 34.1667 28.75 34.1667 26.6667V17.7083C34.1667 16.4583 33.3333 15.625 32.0833 15.625C31.0417 15.625 30.2083 16.25 30 17.2917C25.8333 14.375 19.7917 15.4167 16.875 19.5833C13.9583 23.75 15 29.7917 19.1667 32.7083C23.125 35.4167 28.3333 34.7917 31.4583 31.25C34.1667 34.5833 38.9583 35.2083 42.2917 32.7083C44.1667 31.25 45.4167 28.9583 45.4167 26.4583V25C45.8333 13.5417 36.4583 4.16666 25 4.16666ZM25 30.2083C22.0833 30.2083 19.7917 27.9167 19.7917 25C19.7917 22.0833 22.0833 19.7917 25 19.7917C27.9167 19.7917 30.2083 22.0833 30.2083 25C30.2083 27.9167 27.9167 30.2083 25 30.2083Z" fill="black"/>
</g>
<g filter="url(#filter1_i_0_1)">
<path d="M59.3142 40H55.1142C54.2076 40 53.6076 39.8533 53.3142 39.56C53.0476 39.2667 52.9142 38.6533 52.9142 37.72V12.68C52.9142 12.2 53.0476 11.8133 53.3142 11.52C53.5809 11.2267 53.9276 11.08 54.3542 11.08H59.3142V40ZM60.9142 11.08H65.9942C67.5409 11.08 68.7542 11.2 69.6342 11.44C70.5409 11.68 71.2209 12.16 71.6742 12.88C72.1276 13.5733 72.4076 14.36 72.5142 15.24C72.6476 16.0933 72.7142 17.3067 72.7142 18.88C72.7142 20.4533 72.6476 21.6533 72.5142 22.48C72.4076 23.3067 72.1276 24.08 71.6742 24.8C71.2476 25.52 70.5676 26.0267 69.6342 26.32C68.7276 26.6133 67.5142 26.76 65.9942 26.76H60.9142V22.96H63.8742C64.5676 22.96 65.0076 22.8667 65.1942 22.68C65.4076 22.4933 65.5142 22.2 65.5142 21.8V16.08C65.5142 15.6533 65.4076 15.3467 65.1942 15.16C65.0076 14.9733 64.5676 14.88 63.8742 14.88H60.9142V11.08ZM64.7542 28H69.7142C70.5142 28 71.0876 28.2267 71.4342 28.68C71.7809 29.1067 71.9542 29.8133 71.9542 30.8V40H66.1942C65.7676 40 65.4209 39.8533 65.1542 39.56C64.8876 39.2667 64.7542 38.88 64.7542 38.4V28ZM98.5998 11.08H104.6C106.547 11.08 108.013 11.4133 109 12.08C110.013 12.7467 110.52 13.9067 110.52 15.56V37.72C110.52 38.6533 110.373 39.2667 110.08 39.56C109.813 39.8533 109.227 40 108.32 40H104.12V16.04C104.12 15.6133 104.053 15.32 103.92 15.16C103.813 14.9733 103.52 14.88 103.04 14.88H98.5998V11.08ZM84.0798 40H79.8798C78.9732 40 78.3732 39.8533 78.0798 39.56C77.8132 39.2667 77.6798 38.6533 77.6798 37.72V12.68C77.6798 12.2 77.8132 11.8133 78.0798 11.52C78.3465 11.2267 78.6932 11.08 79.1198 11.08H84.0798V40ZM85.7198 11.08H95.9598C96.3865 11.08 96.7332 11.2267 96.9998 11.52C97.2665 11.8133 97.3998 12.2 97.3998 12.68V37.08H93.2398C92.4398 37.08 91.8665 36.8667 91.5198 36.44C91.1732 35.9867 90.9998 35.2667 90.9998 34.28V16.04C90.9998 15.6133 90.9332 15.32 90.7998 15.16C90.6932 14.9733 90.3998 14.88 89.9198 14.88H85.7198V11.08ZM135.156 25.48L135.196 32.24C135.196 35.4133 134.796 37.5067 133.996 38.52C133.196 39.5067 131.743 40 129.636 40H123.756V36.2H126.716C127.383 36.2 127.823 36.12 128.036 35.96C128.25 35.8 128.356 35.4933 128.356 35.04V16.08C128.356 15.6 128.25 15.28 128.036 15.12C127.823 14.96 127.383 14.88 126.716 14.88H123.756V11.08H130.036C131.983 11.08 133.33 11.5333 134.076 12.44C134.85 13.32 135.236 15.0533 135.236 17.64L135.156 25.48ZM122.556 40.04H118.356C117.476 40.04 116.89 39.8933 116.596 39.6C116.303 39.28 116.156 38.6667 116.156 37.76V13.36C116.156 12.4533 116.303 11.8533 116.596 11.56C116.89 11.24 117.476 11.08 118.356 11.08H122.556V40.04Z" fill="black"/>
</g>
</svg>
